<?xml version="1.0" encoding="UTF-8" standalone="no"?>
<svg width="193px" height="48px" viewBox="0 0 193 40" version="1.1" xmlns="http://www.w3.org/2000/svg" xmlns:xlink="http://www.w3.org/1999/xlink">
    <!-- Generator: Sketch 39.1 (31720) - http://www.bohemiancoding.com/sketch -->
    <title>btn_strava_connectwith_orange</title>
    <desc>Created with Sketch.</desc>
    <defs></defs>
    <g id="Strava-Button_outlined" stroke="none" stroke-width="1" fill="none" fill-rule="evenodd">
        <g id="btn_strava_connectwith_orange">
            <rect id="button-bg" fill="#fc4c02" x="4" y="-1" width="185" height="40" rx="2"></rect>
            <path d="M 27 20.2 L 28.7 20.5 C 28.6 21.6 28.2 22.5 27.5 23.2 C 26.8 23.9 26 24.2 24.9 24.2 C 23.6 24.2 22.6 23.8 21.8 22.9 C 21 22 20.6 20.7 20.6 19 C 20.6 17.4 21 16.2 21.9 15.3 C 22.7 14.4 23.7 14 24.8 14 C 25.9 14 26.7 14.3 27.4 14.9 C 28.1 15.6 28.5 16.4 28.7 17.5 L 26.9 17.7 C 26.7 16.3 26 15.5 24.9 15.5 C 24.1 15.5 23.5 15.8 23.1 16.4 C 22.6 17 22.3 17.8 22.3 19 C 22.3 20.3 22.6 21.2 23 21.8 C 23.5 22.4 24.1 22.7 24.9 22.7 C 26.1 22.7 26.8 21.8 27 20.2 L 27 20.2 Z M 33.5 22.8 C 34.1 22.8 34.5 22.6 34.9 22.1 C 35.2 21.7 35.4 21.1 35.4 20.3 C 35.4 19.5 35.2 18.9 34.9 18.5 C 34.5 18 34.1 17.8 33.5 17.8 C 33 17.8 32.5 18 32.2 18.5 C 31.8 18.9 31.7 19.5 31.7 20.3 C 31.7 21.1 31.8 21.7 32.2 22.1 C 32.5 22.6 33 22.8 33.5 22.8 L 33.5 22.8 Z M 33.5 24.2 C 32.5 24.2 31.7 23.9 31 23.2 C 30.4 22.5 30.1 21.5 30.1 20.3 C 30.1 19.1 30.4 18.1 31.1 17.4 C 31.7 16.7 32.6 16.4 33.5 16.4 C 34.5 16.4 35.3 16.7 35.9 17.4 C 36.6 18.1 36.9 19.1 36.9 20.3 C 36.9 21.5 36.6 22.5 36 23.2 C 35.3 23.9 34.5 24.2 33.5 24.2 L 33.5 24.2 Z M 38.8 24 L 38.8 16.6 L 40.3 16.6 L 40.3 17.3 L 40.3 17.3 C 40.5 17 40.8 16.8 41.2 16.6 C 41.5 16.5 41.9 16.4 42.3 16.4 C 43.2 16.4 43.8 16.6 44.3 17.1 C 44.7 17.6 45 18.3 45 19.1 L 45 24 L 43.4 24 L 43.4 19.6 C 43.4 18.4 42.9 17.8 42 17.8 C 41.5 17.8 41.1 18 40.8 18.3 C 40.5 18.5 40.4 18.9 40.4 19.4 L 40.4 24 L 38.8 24 Z M 47.2 24 L 47.2 16.6 L 48.8 16.6 L 48.8 17.3 L 48.8 17.3 C 49 17 49.3 16.8 49.7 16.6 C 50 16.5 50.4 16.4 50.8 16.4 C 51.6 16.4 52.3 16.6 52.7 17.1 C 53.2 17.6 53.4 18.3 53.4 19.1 L 53.4 24 L 51.9 24 L 51.9 19.6 C 51.9 18.4 51.4 17.8 50.4 17.8 C 49.9 17.8 49.5 18 49.3 18.3 C 49 18.5 48.8 18.9 48.8 19.4 L 48.8 24 L 47.2 24 Z M 60.6 21.5 L 61.8 22.5 C 61.1 23.6 60 24.2 58.7 24.2 C 57.7 24.2 56.8 23.9 56.2 23.1 C 55.5 22.4 55.2 21.5 55.2 20.3 C 55.2 19.1 55.5 18.2 56.2 17.4 C 56.8 16.7 57.6 16.4 58.6 16.4 C 59.6 16.4 60.4 16.7 61 17.4 C 61.7 18.1 62 19.1 62 20.3 L 62 20.8 L 56.8 20.8 C 56.8 21.4 57 21.9 57.3 22.2 C 57.6 22.6 58.1 22.8 58.7 22.8 C 58.9 22.8 59.2 22.8 59.4 22.7 C 59.6 22.6 59.8 22.5 60 22.3 C 60.1 22.2 60.2 22.1 60.3 22 C 60.4 21.8 60.5 21.7 60.6 21.5 L 60.6 21.5 Z M 56.8 19.6 L 60.4 19.6 C 60.4 19 60.2 18.6 59.9 18.3 C 59.6 17.9 59.2 17.8 58.6 17.8 C 58.1 17.8 57.7 18 57.3 18.3 C 57 18.7 56.9 19.1 56.8 19.6 L 56.8 19.6 Z M 68.3 21 L 69.9 21.4 C 69.8 22.3 69.4 23 68.9 23.5 C 68.4 24 67.7 24.2 66.8 24.2 C 65.8 24.2 64.9 23.9 64.3 23.2 C 63.7 22.5 63.3 21.5 63.3 20.3 C 63.3 19.1 63.7 18.2 64.3 17.4 C 65 16.7 65.8 16.4 66.8 16.4 C 67.6 16.4 68.3 16.6 68.9 17.1 C 69.4 17.6 69.7 18.3 69.8 19.1 L 68.3 19.4 C 68.2 18.3 67.7 17.8 66.8 17.8 C 66.2 17.8 65.8 18 65.4 18.5 C 65.1 18.9 64.9 19.5 64.9 20.3 C 64.9 21.1 65.1 21.7 65.4 22.1 C 65.7 22.6 66.2 22.8 66.8 22.8 C 67.6 22.8 68.2 22.2 68.3 21 L 68.3 21 Z M 72 21.5 L 72 18 L 70.9 18 L 70.9 16.6 L 72.1 16.6 L 72.1 14.8 L 73.6 14.8 L 73.6 16.6 L 75.4 16.6 L 75.4 18 L 73.6 18 L 73.6 21.4 C 73.6 21.8 73.7 22.1 73.8 22.2 C 73.9 22.4 74.2 22.5 74.6 22.5 L 75.1 22.5 L 75.1 24 L 74.4 24 C 73.5 24 72.9 23.8 72.6 23.4 C 72.2 23 72 22.4 72 21.5 L 72 21.5 Z M 82 24 L 80.4 16.6 L 81.9 16.6 L 83 21.7 L 83 21.7 L 84.8 16.6 L 86.2 16.6 L 87.9 21.7 L 87.9 21.7 L 89.1 16.6 L 90.6 16.6 L 88.8 24 L 87.3 24 L 85.5 18.4 L 85.5 18.4 L 83.5 24 L 82 24 Z M 92.4 24 L 92.4 16.6 L 94 16.6 L 94 24 L 92.4 24 Z M 92.4 15.4 L 92.4 13.8 L 94 13.8 L 94 15.4 L 92.4 15.4 Z M 96.7 21.5 L 96.7 18 L 95.6 18 L 95.6 16.6 L 96.7 16.6 L 96.7 14.8 L 98.2 14.8 L 98.2 16.6 L 100.1 16.6 L 100.1 18 L 98.3 18 L 98.3 21.4 C 98.3 21.8 98.3 22.1 98.5 22.2 C 98.6 22.4 98.8 22.5 99.2 22.5 L 99.8 22.5 L 99.8 24 L 99.1 24 C 98.2 24 97.6 23.8 97.2 23.4 C 96.9 23 96.7 22.4 96.7 21.5 L 96.7 21.5 Z M 101.9 24 L 101.9 13.8 L 103.5 13.8 L 103.5 17.3 L 103.5 17.3 C 103.7 17.1 103.9 16.8 104.3 16.6 C 104.7 16.5 105.1 16.4 105.5 16.4 C 106.3 16.4 106.9 16.6 107.4 17.1 C 107.9 17.6 108.2 18.2 108.2 19.1 L 108.2 24 L 106.6 24 L 106.6 19.5 C 106.6 19 106.4 18.6 106.2 18.3 C 105.9 18 105.5 17.8 105 17.8 C 104.6 17.8 104.2 18 103.9 18.3 C 103.6 18.5 103.5 18.9 103.5 19.3 L 103.5 24 L 101.9 24 Z" id="Connect-with" fill="#ffffff"></path>
            <path d="M 160 13.7 L 157.6 18.7 L 155.1 13.7 L 151.5 13.7 L 157.6 26 L 163.6 13.7 L 160 13.7 Z M 140.2 18.1 C 140.2 17.7 140 17.4 139.8 17.2 C 139.5 17 139.2 17 138.7 17 L 137.1 17 L 137.1 19.2 L 138.7 19.2 C 139.2 19.2 139.5 19.1 139.8 18.9 C 140 18.7 140.2 18.4 140.2 18.1 L 140.2 18.1 Z M 149.2 13 L 155.2 25.3 L 151.6 25.3 L 149.2 20.3 L 146.7 25.3 L 144.3 25.3 L 143.1 25.3 L 140 25.3 L 137.9 22 L 137.9 22 L 137.1 22 L 137.1 25.3 L 133.4 25.3 L 133.4 13.7 L 138.8 13.7 C 139.8 13.7 140.7 13.8 141.3 14.1 C 142 14.3 142.5 14.6 142.9 15 C 143.2 15.4 143.5 15.8 143.6 16.2 C 143.8 16.7 143.9 17.2 143.9 17.8 L 143.9 17.8 C 143.9 18.7 143.7 19.4 143.3 20 C 142.9 20.5 142.4 21 141.7 21.3 L 143.6 24.3 L 149.2 13 Z M 166 13 L 159.9 25.3 L 163.5 25.3 L 166 20.3 L 168.4 25.3 L 172 25.3 L 166 13 Z M 122.5 17 L 125.8 17 L 125.8 25.3 L 129.5 25.3 L 129.5 17 L 132.8 17 L 132.8 13.7 L 122.5 13.7 L 122.5 17 Z M 122.4 20.1 C 122.6 20.5 122.7 21 122.7 21.5 L 122.7 21.6 C 122.7 22.2 122.6 22.7 122.3 23.2 C 122.1 23.7 121.8 24.1 121.4 24.4 C 120.9 24.8 120.4 25 119.8 25.2 C 119.2 25.4 118.5 25.5 117.7 25.5 C 116.6 25.5 115.5 25.3 114.6 25 C 113.6 24.7 112.7 24.2 112 23.5 L 114 21.1 C 114.6 21.6 115.3 21.9 115.9 22.1 C 116.6 22.3 117.3 22.4 117.9 22.4 C 118.3 22.4 118.5 22.4 118.7 22.3 C 118.8 22.2 118.9 22.1 118.9 21.9 L 118.9 21.9 C 118.9 21.7 118.8 21.6 118.6 21.5 C 118.3 21.4 117.9 21.3 117.3 21.2 C 116.7 21 116.1 20.9 115.5 20.7 C 115 20.5 114.5 20.3 114 20 C 113.6 19.7 113.2 19.4 113 19 C 112.7 18.6 112.6 18 112.6 17.4 L 112.6 17.4 C 112.6 16.9 112.7 16.3 112.9 15.9 C 113.1 15.4 113.4 15 113.8 14.6 C 114.2 14.3 114.7 14 115.3 13.8 C 115.9 13.6 116.6 13.5 117.4 13.5 C 118.5 13.5 119.4 13.6 120.2 13.9 C 121 14.2 121.8 14.6 122.4 15.1 L 120.6 17.7 C 120.1 17.3 119.5 17 118.9 16.8 C 118.3 16.7 117.8 16.6 117.2 16.6 C 117 16.6 116.8 16.6 116.6 16.7 C 116.5 16.8 116.4 16.9 116.4 17 L 116.4 17.1 C 116.4 17.2 116.5 17.4 116.7 17.5 C 116.9 17.6 117.3 17.7 117.9 17.8 C 118.6 17.9 119.3 18.1 119.9 18.3 C 120.4 18.5 121 18.7 121.4 19 C 121.8 19.3 122.1 19.7 122.4 20.1 L 122.4 20.1 Z" id="Strava-logo-Copy-6" fill="#ffffff"></path>
        </g>
    </g>
</svg>